<svg id="Group_478" data-name="Group 478" xmlns="http://www.w3.org/2000/svg" xmlns:xlink="http://www.w3.org/1999/xlink" width="225.655" height="84.566" viewBox="0 0 225.655 84.566">
  <defs>
    <clipPath id="clip-path">
      <rect id="Rectangle_243" data-name="Rectangle 243" width="225.655" height="84.566" fill="#49c4bc"/>
    </clipPath>
  </defs>
  <g id="Group_476" data-name="Group 476" clip-path="url(#clip-path)">
    <path id="Path_417" data-name="Path 417" d="M40.584,26.922a5.209,5.209,0,0,1,.265-2.016,1.511,1.511,0,0,1,1.08-.754l14.013-3.381a3.725,3.725,0,0,1,1.1-.163.823.823,0,0,1,.774.346,3.176,3.176,0,0,1,.2,1.405l-.489,6.4q-.2,2.811-.448,5.581a34.682,34.682,0,0,1-.733,4.848l-.733,5.784q-.326,2.567-.611,5.56t-.611,6.7L52.479,77.312a3.536,3.536,0,0,1-.163.733.852.852,0,0,1-.529.53q-.286.122-1.324.53T48,80.041q-1.426.53-3.055,1.12t-3.1,1.08q-1.466.489-2.607.815a7.042,7.042,0,0,1-1.548.326,1.672,1.672,0,0,1-1-.305,1.343,1.343,0,0,1-.428-1.161,91.555,91.555,0,0,1,.57-10.082q.57-5.153,1.018-10.245a5.871,5.871,0,0,0,.061-1.059,5.713,5.713,0,0,1,.061-1.059H23.068L21.4,77.312a4.174,4.174,0,0,1-.143.713.91.91,0,0,1-.55.55q-.164.082-1.609.591t-3.34,1.181q-1.894.672-3.748,1.344T9.177,82.73q-.489.2-1.2.428a4.683,4.683,0,0,1-1.406.224,1.6,1.6,0,0,1-1-.326,1.405,1.405,0,0,1-.428-1.181q0-1.955.142-4.461t.346-5.255q.2-2.75.489-5.642t.57-5.7l.082-1.181a43.848,43.848,0,0,1-4.787-.183Q.5,59.266.5,58.492a2.651,2.651,0,0,1,.611-1.385q.815-1.14,1.894-2.75T5.083,51.18q1-1.568,1.792-2.811T7.914,46.76l.937-9.817q0-.081.081-1.222t.2-2.709q.122-1.568.265-3.239t.265-2.851a12.311,12.311,0,0,1,.224-2,1.147,1.147,0,0,1,.957-.774L24.7,20.771a3.729,3.729,0,0,1,1.1-.163.823.823,0,0,1,.774.346,3.175,3.175,0,0,1,.2,1.405q-.286,2.933-.448,5.336t-.346,4.481q-.184,2.078-.387,3.951t-.57,3.829l-.815,6.314L39,46.109q.367-5.417.815-9.206t.57-5.988q.122-2.078.163-2.974T40.584,26.922Z" transform="translate(-0.368 -15.181)" fill="#49c4bc"/>
    <path id="Path_418" data-name="Path 418" d="M255.087,75.671a16.685,16.685,0,0,1,7.027,1.446,18.041,18.041,0,0,1,5.418,3.748,16.7,16.7,0,0,1,3.483,5.153,14.378,14.378,0,0,1,1.222,5.7,9.7,9.7,0,0,1-1.548,5.072,16.044,16.044,0,0,1-4.338,4.583,23.547,23.547,0,0,1-6.7,3.3,27.838,27.838,0,0,1-8.6,1.263,28.721,28.721,0,0,1-5.133-.489,6.316,6.316,0,0,0,1.018,3.015,7.159,7.159,0,0,0,2.159,2.077,9.7,9.7,0,0,0,2.953,1.2,14.821,14.821,0,0,0,3.4.387,20.04,20.04,0,0,0,3.768-.346,25.591,25.591,0,0,0,3.483-.917q1.67-.57,3.219-1.263t2.933-1.385c.244-.054.454-.1.631-.142a2.272,2.272,0,0,1,.509-.061q-.041,1.3-.041,2.485t-.021,2.851q-.021,1.671-.061,3.707a1.277,1.277,0,0,1,.163.407,1.8,1.8,0,0,1,.041.326q0,.489-.9,1.059a16.184,16.184,0,0,1-2.342,1.181,34.813,34.813,0,0,1-3.3,1.181q-1.854.57-3.768,1.039t-3.707.733a21.866,21.866,0,0,1-3.137.265,24.44,24.44,0,0,1-8.534-1.528,22.746,22.746,0,0,1-7.332-4.379,21.06,21.06,0,0,1-7.027-16.091,27.1,27.1,0,0,1,1.833-10,24.611,24.611,0,0,1,5.153-8.127,24.154,24.154,0,0,1,7.923-5.459A25.235,25.235,0,0,1,255.087,75.671ZM254.6,86.507a6.7,6.7,0,0,0-3.076.713,8.6,8.6,0,0,0-2.566,2.037,13.132,13.132,0,0,0-2.017,3.178,21.6,21.6,0,0,0-1.385,4.094,64.873,64.873,0,0,0,6.966-1.548,27.629,27.629,0,0,0,4.44-1.65,7.351,7.351,0,0,0,2.363-1.67,2.562,2.562,0,0,0,.692-1.609,2.118,2.118,0,0,0-.55-1.385,5.412,5.412,0,0,0-1.365-1.141,7.133,7.133,0,0,0-1.772-.754A6.572,6.572,0,0,0,254.6,86.507Z" transform="translate(-169.45 -55.742)" fill="#49c4bc"/>
    <path id="Path_419" data-name="Path 419" d="M423.186,139.708a1.042,1.042,0,0,1-.183.265.481.481,0,0,1-.346.1,1.241,1.241,0,0,1-.366-.041q-1.467-.53-2.77-.9t-2.586-.672q-1.283-.305-2.628-.57t-2.852-.591a1.433,1.433,0,0,1-.631-.265.775.775,0,0,1-.224-.631,2.883,2.883,0,0,1,.143-.591q.142-.469.713-1.915t1.752-4.2q1.181-2.75,3.259-7.394-.611-2.036-1.385-4.888t-1.65-6.233q-.877-3.381-1.813-7.149t-1.894-7.618q-.958-3.849-1.915-7.618t-1.854-7.19a3.7,3.7,0,0,1-.326-1.08q-.041-.427-.041-.713a.728.728,0,0,1,.652-.733q3.177-.693,6.6-1.446a44.371,44.371,0,0,0,6.477-1.935,1.241,1.241,0,0,1,.366-.041q.529,0,.57.407l4.97,27.374q.163-.489.632-1.772t1.1-3.076q.631-1.792,1.405-3.951t1.589-4.4q.814-2.24,1.609-4.461t1.487-4.135q.692-1.914,1.2-3.381t.794-2.2a.6.6,0,0,1,.611-.407.424.424,0,0,1,.163.021.422.422,0,0,0,.163.02,47.14,47.14,0,0,0,6.273,1.935q3.217.755,6.4,1.446a.851.851,0,0,1,.774.9,4.6,4.6,0,0,1-.489,1.629l-16.783,37.925Z" transform="translate(-298.769 -55.742)" fill="#49c4bc"/>
    <path id="Path_420" data-name="Path 420" d="M597.091,120.972a25.257,25.257,0,0,1-10.082-1.874,21.577,21.577,0,0,1-7.271-4.991,20.542,20.542,0,0,1-4.4-7.169,24.537,24.537,0,0,1-1.467-8.412,24.121,24.121,0,0,1,1.426-8.29,23.7,23.7,0,0,1,3.992-7.047,22.839,22.839,0,0,1,6.151-5.214,23.181,23.181,0,0,1,7.9-2.831q.651-.04.652-.285a3.293,3.293,0,0,0-.1-.835,2.685,2.685,0,0,1-.1-.672.868.868,0,0,1,.163-.611.506.506,0,0,1,.367-.163A43.214,43.214,0,0,1,607.56,74.35a24.512,24.512,0,0,1,8.881,4.827,17.973,17.973,0,0,1,4.97,7.21,25.355,25.355,0,0,1,1.548,8.921,27.341,27.341,0,0,1-2.037,10.836,23.6,23.6,0,0,1-5.561,8.066,24.039,24.039,0,0,1-8.228,5.031A28.857,28.857,0,0,1,597.091,120.972Zm-7.536-22.894a20.5,20.5,0,0,0,.468,4.359,12.384,12.384,0,0,0,1.548,3.91,8.54,8.54,0,0,0,2.831,2.831,8.165,8.165,0,0,0,4.359,1.08,7.54,7.54,0,0,0,3.279-.835,8.262,8.262,0,0,0,2.423-1.955,11.229,11.229,0,0,0,1.691-2.709,17.912,17.912,0,0,0,1.059-3.116,24.506,24.506,0,0,0,.55-3.157,27.248,27.248,0,0,0,.163-2.811,13.96,13.96,0,0,0-.632-4.155,10.968,10.968,0,0,0-1.853-3.585,9.424,9.424,0,0,0-3.035-2.505,8.815,8.815,0,0,0-4.175-.957,6.066,6.066,0,0,0-4.114,1.446,10.649,10.649,0,0,0-2.668,3.564A18.625,18.625,0,0,0,590,93.944,22.3,22.3,0,0,0,589.555,98.079Z" transform="translate(-422.732 -53.463)" fill="#49c4bc"/>
    <path id="Path_421" data-name="Path 421" d="M790.02,51.827q-.122,1.752-.183,2.688t-.1,1.405c-.027.313-.041.509-.041.591a.625.625,0,0,1-.021.184,1.385,1.385,0,0,0-.041.244c-.014.122-.034.381-.061.774s-.068.971-.122,1.731-.136,1.806-.245,3.136a7.683,7.683,0,0,1-.265,1.854,1.133,1.133,0,0,1-.917.672q-3.463.693-7.251,1.446a60.362,60.362,0,0,0-7.333,1.935,1.247,1.247,0,0,1-.367.041l-.367-.326-.081-.081.9-11.162a7.8,7.8,0,0,1,.265-1.833,1.128,1.128,0,0,1,.916-.693q3.462-.611,7.007-1.385t7.5-1.589a1.247,1.247,0,0,1,.367-.041Q790.02,51.42,790.02,51.827ZM791.446,18.1q-1.3,6.355-2.546,12.689T786.6,43.6a8.025,8.025,0,0,1-.265,1.874,1.046,1.046,0,0,1-.917.652q-1.588.286-3.137.611t-3.259.774c-.218,0-.346-.034-.387-.1a.6.6,0,0,1-.061-.306l-.407-40.247a6.9,6.9,0,0,1,.285-1.833,1.159,1.159,0,0,1,.9-.693q3.462-.773,7.007-1.772t7.5-2.016A1.246,1.246,0,0,1,794.216.5c.3,0,.448.136.448.407q0,.041-.163,1t-.428,2.464q-.266,1.508-.591,3.4t-.693,3.789q-.366,1.894-.713,3.626T791.446,18.1Z" transform="translate(-569.141 -0.368)" fill="#49c4bc"/>
    <path id="Path_422" data-name="Path 422" d="M694.57,293.11a2.918,2.918,0,0,0,2.383-1.154l1.268,1.306a4.782,4.782,0,0,1-6.927.406,4.683,4.683,0,0,1,.025-6.553,4.548,4.548,0,0,1,3.3-1.318,4.68,4.68,0,0,1,3.651,1.661l-1.229,1.394a2.882,2.882,0,0,0-2.332-1.166,2.719,2.719,0,0,0-1.908.729,2.54,2.54,0,0,0-.792,1.965,2.681,2.681,0,0,0,.748,1.984A2.468,2.468,0,0,0,694.57,293.11Z" transform="translate(-508.253 -210.526)" fill="#49c4bc"/>
    <path id="Path_423" data-name="Path 423" d="M738.786,286.566h1.977v8.86h-1.977V291.94h-3.524v3.486h-1.978v-8.86h1.978v3.7h3.524Z" transform="translate(-540.161 -211.093)" fill="#49c4bc"/>
    <path id="Path_424" data-name="Path 424" d="M779.11,295.425l-.824-1.914h-3.714l-.824,1.914h-2.1l3.828-8.861h1.914l3.828,8.861Zm-2.674-6.224-1.116,2.573h2.218Z" transform="translate(-568.418 -211.093)" fill="#49c4bc"/>
    <path id="Path_425" data-name="Path 425" d="M817.185,288.277v7.149h-1.977v-7.149H812.7v-1.711h7v1.711Z" transform="translate(-598.66 -211.093)" fill="#49c4bc"/>
  </g>
</svg>
